<svg xmlns="http://www.w3.org/2000/svg" xmlns:xlink="http://www.w3.org/1999/xlink" id="body_4" width="816" height="671"><defs><clipPath id="1"><path id="" clip-rule="evenodd" transform="matrix(1 0 0 1 0 0)" d="M0 792L0 0L0 0L612 0L612 0L612 792L612 792L0 792z" /></clipPath></defs><g transform="matrix(1.3333334 0 0 1.3333333 0 0)"><g clip-path="url(#1)"><path id="237" transform="matrix(1 0 0 -1 0 792)" d="M18 696.652L594 696.652" stroke="#000000" stroke-width="0.398" fill="none" /><path id="421" transform="matrix(1 0 0 -1 0 792)" d="M18 657.399L594 657.399" stroke="#000000" stroke-width="0.398" fill="none" /><path id="726" transform="matrix(1 0 0 -1 0 792)" d="M18 563.706L594 563.706" stroke="#000000" stroke-width="0.398" fill="none" /><path id="1011" transform="matrix(1 0 0 -1 0 792)" d="M18 414.864L594 414.864" stroke="#000000" stroke-width="0.398" fill="none" /></g></g></svg>